{"title":"Lost Boys-The Thirst-AC3-XviD-DVDRip[Eng]2010 2Lions-Team","uid":5890968,"size":1463421661,"categoryP":"video","categoryS":"movies","magnet":"?xt=urn:btih:88de4642b79ba943ad2c8680ab615185a48c71be&amp;dn=Lost+Boys-The+Thirst-AC3-XviD-DVDRip%5BEng%5D2010+2Lions-Team&amp;tr=udp%3A%2F%2Ftracker.openbittorrent.com%3A80&amp;tr=udp%3A%2F%2Fopen.demonii.com%3A1337&amp;tr=udp%3A%2F%2Ftracker.coppersurfer.tk%3A6969&amp;tr=udp%3A%2F%2Fexodus.desync.com%3A6969","seeders":1,"leechers":0,"uploader":"FatFreddy31","files":-1,"time":1287245191,"description":"The thankless life of a vampire hunter has taken its toll on Edgar Frog. After losing best friend and fellow vamp fighter...\n &lt;a href=&quot;\nhttp://www.imdb.com/title/tt1400526/&quot; rel=&quot;nofollow&quot; target=&quot;_NEW&quot;&gt;\nhttp://www.imdb.com/title/tt1400526/&lt;/a&gt;\n\nSubtitles (srt) : Dutch, English.\n\nCovers included.\n\nDe vampierenjager Edgar Frog heeft haast geen vrienden meer en voelt zich berooid. Hij denkt dat hij het dieptepunt van zijn leven heeft bereikt. Dan krijgt hij een klein fortuin aangeboden van de rijke vampierenroman schrijfster Gwen Liebling. Hij moet haar zoon Peter redden uit de handen van de Alpha vampier (de leider van een groep vampieren) DJ Dusk. Met behulp van zijn vrienden Zoe, Lars en Blake stort Edgar zich in een bloederig gevecht om het kwaad uit te roeien.\n &lt;a href=&quot;\nhttp://www.moviemeter.nl/film/66586&quot; rel=&quot;nofollow&quot; target=&quot;_NEW&quot;&gt;\nhttp://www.moviemeter.nl/film/66586&lt;/a&gt;\n\nOndertitels (srt) : Engels, Nederlands.\n\nHoesjes bijgevoegd.\n\nGeneral\nComplete name                    : Lost Boys-The Thirst-AC3-XviD-DVDRip[Eng]2010 2Lions-Team\\Lost Boys-The Thirst-AC3-XviD-DVDRip[Eng]2010 2Lions-Team.avi\nFormat                           : AVI\nFormat/Info                      : Audio Video Interleave\nFile size                        : 1.36 GiB\nDuration                         : 1h 21mn\nOverall bit rate                 : 2 397 Kbps\nWriting application              : VirtualDubMod 1.5.4.1 (build 2178/release)\nWriting library                  : VirtualDubMod build 2178/release\nSource                           : Lost Boys 3 The Thirst COMPLETE 2010 NTSC DVDR-KART3LDVD\n\nVideo\nID                               : 0\nFormat                           : MPEG-4 Visual\nFormat profile                   : Simple@L3\nFormat settings, BVOP            : No\nFormat settings, QPel            : No\nFormat settings, GMC             : No warppoints\nFormat settings, Matrix          : Default (H.263)\nCodec ID                         : XVID\nCodec ID/Hint                    : XviD\nDuration                         : 1h 21mn\nBit rate                         : 2 004 Kbps\nWidth                            : 720 pixels\nHeight                           : 304 pixels\nDisplay aspect ratio             : 2.35:1\nFrame rate                       : 23.976 fps\nColor space                      : YUV\nChroma subsampling               : 4:2:0\nBit depth                        : 8 bits\nScan type                        : Progressive\nBits/(Pixel*Frame)               : 0.382\nStream size                      : 1.14 GiB (84%)\nWriting library                  : XviD 1.1.2 (UTC 2006-11-01)\n\nAudio\nID                               : 1\nFormat                           : AC-3\nFormat/Info                      : Audio Coding 3\nMode extension                   : CM (complete main)\nCodec ID                         : 2000\nDuration                         : 1h 21mn\nBit rate mode                    : Constant\nBit rate                         : 384 Kbps\nChannel(s)                       : 6 channels\nChannel positions                : Front: L C R, Side: L R, LFE\nSampling rate                    : 48.0 KHz\nBit depth                        : 16 bits\nStream size                      : 223 MiB (16%)\nAlignment                        : Split accross interleaves\nInterleave, duration             : 42 ms (1.00 video frame)\nInterleave, preload duration     : 500 ms\n\nThanks to Simply ReleaseS for the source, and Dutch subs. Excellent job peeps!\n\nBrought to you by \n2Lions Team\n\nmeer zien??\n                   \nKom dan eens kijken op ons NIEUWE forum \n            &lt;a href=&quot;\nhttp://www.2lions-site.nl/&quot; rel=&quot;nofollow&quot; target=&quot;_NEW&quot;&gt;\nhttp://www.2lions-site.nl/&lt;/a&gt;\n\n2Lions the site to be for all your Dutch MOVIES and more\n\n******************************************\n\nDON T HIT AND RUN Niet gelijk afhaken als de FILM binnen is blijf seeden. \n\nDon`t quit after you finished the download, but keep seeding\n\nThere are fake torrents from uploaders who use our team name.\nThose are not ours, or members from our team.\nWe 2Lions-Team are not responsible for the fake posts on our name\n\nWij 2Lions-Team zijn niet verantwoordelijk voor die zieke FAKE posten die op onze naam worden gedaan\n\nPlease check our site !!!\n\nto the fakers , get a life !!!","torrent":{"xt":"urn:btih:88de4642b79ba943ad2c8680ab615185a48c71be","amp;dn":"Lost+Boys-The+Thirst-AC3-XviD-DVDRip%5BEng%5D2010+2Lions-Team","amp;tr":["udp%3A%2F%2Ftracker.openbittorrent.com%3A80","udp%3A%2F%2Fopen.demonii.com%3A1337","udp%3A%2F%2Ftracker.coppersurfer.tk%3A6969","udp%3A%2F%2Fexodus.desync.com%3A6969"],"infoHash":"88de4642b79ba943ad2c8680ab615185a48c71be","infoHashBuffer":{"type":"Buffer","data":[136,222,70,66,183,155,169,67,173,44,134,128,171,97,81,133,164,140,113,190]},"announce":[],"urlList":[]}}